<?xml version="1.0" encoding="UTF-8" standalone="no"?>
<!-- Generator: Adobe Illustrator 18.1.1, SVG Export Plug-In . SVG Version: 6.00 Build 0)  -->

<svg
   xmlns:dc="http://purl.org/dc/elements/1.1/"
   xmlns:cc="http://creativecommons.org/ns#"
   xmlns:rdf="http://www.w3.org/1999/02/22-rdf-syntax-ns#"
   xmlns:svg="http://www.w3.org/2000/svg"
   xmlns="http://www.w3.org/2000/svg"
   xmlns:sodipodi="http://sodipodi.sourceforge.net/DTD/sodipodi-0.dtd"
   xmlns:inkscape="http://www.inkscape.org/namespaces/inkscape"
   version="1.1"
   id="Capa_1"
   x="0px"
   y="0px"
   viewBox="0 0 160.00001 160.00001"
   xml:space="preserve"
   inkscape:version="0.91 r13725"
   sodipodi:docname="dancer-pose.svg"
   width="160"
   height="160"><metadata
     id="metadata41"><rdf:RDF><cc:Work
         rdf:about=""><dc:format>image/svg+xml</dc:format><dc:type
           rdf:resource="http://purl.org/dc/dcmitype/StillImage" /><dc:title></dc:title></cc:Work></rdf:RDF></metadata><defs
     id="defs39" /><sodipodi:namedview
     pagecolor="#ffffff"
     bordercolor="#666666"
     borderopacity="1"
     objecttolerance="10"
     gridtolerance="10"
     guidetolerance="10"
     inkscape:pageopacity="0"
     inkscape:pageshadow="2"
     inkscape:window-width="1252"
     inkscape:window-height="868"
     id="namedview37"
     showgrid="false"
     inkscape:zoom="1"
     inkscape:cx="-127.30333"
     inkscape:cy="19.174405"
     inkscape:window-x="1442"
     inkscape:window-y="83"
     inkscape:window-maximized="0"
     inkscape:current-layer="Capa_1" /><g
     id="g3"
     style="fill:#ffffff"
     transform="matrix(1.8335841,0,0,1.8335841,30.000419,30.000005)"><path
       style="fill:#ffffff"
       d="m 44.391,0 c -1.728,0 -3.13,1.401 -3.13,3.13 l 0,5.472 c -4.039,3.497 -8.411,6.553 -13.24,8.84 -0.707,0.15 -1.379,0.456 -1.973,0.878 -0.066,0.028 -0.132,0.061 -0.199,0.088 -0.979,0.405 -1.522,1.187 -1.707,2.032 -4.73,-0.482 -9.354,-1.355 -13.861,-2.926 -3.277,-1.143 -4.672,4.043 -1.427,5.175 5.299,1.848 10.792,2.729 16.368,3.226 0.014,0.002 0.024,-10e-4 0.038,0 3.945,3.791 8.759,5.824 14.236,5.928 0.653,0.012 1.241,-0.084 1.766,-0.259 l 0,19.825 c 0,1.729 1.402,3.129 3.133,3.129 1.731,0 3.132,-1.396 3.132,-3.129 l 0,-48.279 C 47.523,1.401 46.121,0 44.391,0 Z m -3.13,22.075 c -0.504,-0.18 -1.067,-0.287 -1.694,-0.298 -2.056,-0.039 -3.813,-0.554 -5.417,-1.583 2.473,-1.415 4.837,-2.991 7.111,-4.718 l 0,6.599 z M 22.761,6.168 c 2.964,0 5.368,2.403 5.368,5.367 0,2.964 -2.403,5.367 -5.368,5.367 -2.964,0 -5.367,-2.403 -5.367,-5.367 0,-2.964 2.403,-5.367 5.367,-5.367 z"
       id="path5"
       inkscape:connector-curvature="0" /></g><g
     id="g7"
     transform="translate(0,105.46201)" /><g
     id="g9"
     transform="translate(0,105.46201)" /><g
     id="g11"
     transform="translate(0,105.46201)" /><g
     id="g13"
     transform="translate(0,105.46201)" /><g
     id="g15"
     transform="translate(0,105.46201)" /><g
     id="g17"
     transform="translate(0,105.46201)" /><g
     id="g19"
     transform="translate(0,105.46201)" /><g
     id="g21"
     transform="translate(0,105.46201)" /><g
     id="g23"
     transform="translate(0,105.46201)" /><g
     id="g25"
     transform="translate(0,105.46201)" /><g
     id="g27"
     transform="translate(0,105.46201)" /><g
     id="g29"
     transform="translate(0,105.46201)" /><g
     id="g31"
     transform="translate(0,105.46201)" /><g
     id="g33"
     transform="translate(0,105.46201)" /><g
     id="g35"
     transform="translate(0,105.46201)" /></svg>