<?xml version="1.0" encoding="UTF-8" standalone="no"?>
<!-- Generator: Adobe Illustrator 16.0.0, SVG Export Plug-In . SVG Version: 6.00 Build 0)  -->

<svg
   xmlns:dc="http://purl.org/dc/elements/1.1/"
   xmlns:cc="http://creativecommons.org/ns#"
   xmlns:rdf="http://www.w3.org/1999/02/22-rdf-syntax-ns#"
   xmlns:svg="http://www.w3.org/2000/svg"
   xmlns="http://www.w3.org/2000/svg"
   xmlns:sodipodi="http://sodipodi.sourceforge.net/DTD/sodipodi-0.dtd"
   xmlns:inkscape="http://www.inkscape.org/namespaces/inkscape"
   version="1.1"
   id="Capa_1"
   x="0px"
   y="0px"
   width="160"
   height="160"
   viewBox="0 0 160 160"
   xml:space="preserve"
   inkscape:version="0.91 r13725"
   sodipodi:docname="wax-seal-with-ribbon.svg"><metadata
     id="metadata41"><rdf:RDF><cc:Work
         rdf:about=""><dc:format>image/svg+xml</dc:format><dc:type
           rdf:resource="http://purl.org/dc/dcmitype/StillImage" /><dc:title></dc:title></cc:Work></rdf:RDF></metadata><defs
     id="defs39" /><sodipodi:namedview
     pagecolor="#ffffff"
     bordercolor="#666666"
     borderopacity="1"
     objecttolerance="10"
     gridtolerance="10"
     guidetolerance="10"
     inkscape:pageopacity="0"
     inkscape:pageshadow="2"
     inkscape:window-width="1002"
     inkscape:window-height="865"
     id="namedview37"
     showgrid="false"
     inkscape:zoom="0.4695695"
     inkscape:cx="-36.203877"
     inkscape:cy="251.29401"
     inkscape:window-x="41"
     inkscape:window-y="204"
     inkscape:window-maximized="0"
     inkscape:current-layer="Capa_1" /><g
     id="g3"
     transform="matrix(0.19896998,0,0,0.19896998,30.000103,30.000151)"
     style="fill:#ffffff"><path
       d="m 347.102,173.479 c 0,54.353 -44.061,98.414 -98.408,98.414 -54.348,0 -98.411,-44.061 -98.411,-98.414 0,-54.35 44.058,-98.411 98.407,-98.411 54.348,0.001 98.412,44.061 98.412,98.411 z m 99.76,289.594 c -2.111,2.179 -5.449,2.633 -8.063,1.106 L 367,422.274 c -0.741,8.138 -1.812,20.062 -2.919,31.974 -0.979,10.599 -1.975,21.192 -2.745,29.144 -0.396,3.994 -0.729,7.327 -0.984,9.657 -0.457,4.188 -1.023,9.402 -6.892,9.538 -0.027,0 -0.061,0 -0.088,0 -1.739,0.024 -3.414,-0.645 -4.667,-1.854 -1.034,-1.002 -1.722,-2.45 -1.954,-3.912 -2.353,-8.11 -39.142,-92.681 -69.193,-160.997 l -5.865,4.409 c -2.091,1.56 -4.373,2.9 -6.764,3.945 -10.642,4.651 -23.201,3.427 -32.754,-3.185 l -10.411,-7.206 c -28.932,67.803 -63.311,149.265 -65.524,157.239 -0.214,1.454 -0.882,2.909 -1.918,3.922 -1.237,1.226 -2.914,1.915 -4.643,1.915 -0.03,0 -0.063,0 -0.089,-0.005 -5.875,-0.083 -6.49,-5.281 -6.994,-9.46 -0.282,-2.325 -0.646,-5.659 -1.081,-9.654 -0.864,-7.935 -1.973,-18.522 -3.061,-29.104 -1.232,-11.906 -2.444,-23.808 -3.268,-31.94 L 63.85,459.364 c -2.61,1.56 -5.951,1.14 -8.08,-1.018 -2.139,-2.162 -2.533,-5.5 -0.951,-8.092 L 142.359,306.64 C 130.2,303.099 120.904,293.003 118.588,280.271 L 110.194,234.067 81.978,196.522 C 73.22,184.877 72.916,168.998 81.214,157.011 l 26.735,-38.616 6.588,-46.499 c 1.639,-11.503 9.264,-21.549 19.915,-26.194 2.395,-1.053 4.914,-1.817 7.487,-2.288 l 46.21,-8.399 37.543,-28.21 c 2.096,-1.577 4.37,-2.903 6.758,-3.945 10.807,-4.731 23.051,-3.541 32.753,3.176 l 38.604,26.728 46.501,6.599 c 14.436,2.046 25.876,13.061 28.486,27.401 l 8.395,46.206 28.216,37.538 c 8.755,11.647 9.054,27.527 0.766,39.518 l -26.736,38.614 -6.588,46.495 c -1.638,11.511 -9.259,21.547 -19.914,26.203 -2.39,1.051 -4.915,1.812 -7.48,2.282 l -2.003,0.361 94.284,150.985 c 1.607,2.578 1.248,5.925 -0.872,8.107 z M 361.977,173.479 c 0,-62.564 -50.726,-113.287 -113.288,-113.287 -62.567,0 -113.29,50.722 -113.29,113.287 0,62.567 50.723,113.292 113.29,113.292 62.562,0 113.288,-50.724 113.288,-113.292 z"
       id="path5"
       inkscape:connector-curvature="0"
       style="fill:#ffffff" /></g><g
     id="g7"
     transform="translate(0,-342.58801)" /><g
     id="g9"
     transform="translate(0,-342.58801)" /><g
     id="g11"
     transform="translate(0,-342.58801)" /><g
     id="g13"
     transform="translate(0,-342.58801)" /><g
     id="g15"
     transform="translate(0,-342.58801)" /><g
     id="g17"
     transform="translate(0,-342.58801)" /><g
     id="g19"
     transform="translate(0,-342.58801)" /><g
     id="g21"
     transform="translate(0,-342.58801)" /><g
     id="g23"
     transform="translate(0,-342.58801)" /><g
     id="g25"
     transform="translate(0,-342.58801)" /><g
     id="g27"
     transform="translate(0,-342.58801)" /><g
     id="g29"
     transform="translate(0,-342.58801)" /><g
     id="g31"
     transform="translate(0,-342.58801)" /><g
     id="g33"
     transform="translate(0,-342.58801)" /><g
     id="g35"
     transform="translate(0,-342.58801)" /></svg>