<?xml version="1.0" encoding="UTF-8" standalone="no"?>
<svg
   xmlns:dc="http://purl.org/dc/elements/1.1/"
   xmlns:cc="http://creativecommons.org/ns#"
   xmlns:rdf="http://www.w3.org/1999/02/22-rdf-syntax-ns#"
   xmlns:svg="http://www.w3.org/2000/svg"
   xmlns="http://www.w3.org/2000/svg"
   viewBox="0 0 213.33333 213.33333"
   height="213.33333"
   width="213.33333"
   xml:space="preserve"
   id="svg2"
   version="1.1"><metadata
     id="metadata8"><rdf:RDF><cc:Work
         rdf:about=""><dc:format>image/svg+xml</dc:format><dc:type
           rdf:resource="http://purl.org/dc/dcmitype/StillImage" /><dc:title></dc:title></cc:Work></rdf:RDF></metadata><defs
     id="defs6" /><g
     transform="matrix(1.3333333,0,0,-1.3333333,0,213.33333)"
     id="g10"><path
       d="m 51.156,36.598 -0.094,6.64 c 0,1.051 0.024,1.985 0.079,2.797 0.062,0.813 0.234,1.219 0.515,1.219 h 2.36 c 0,-0.375 0.031,-1.106 0.093,-2.188 0.071,-1.074 0.118,-2.156 0.141,-3.25 0.031,-1.093 0.047,-2.027 0.047,-2.796 0,-0.774 -0.016,-1.774 -0.047,-3 -0.023,-1.231 -0.137,-2.586 -0.344,-4.063 -0.492,-3.398 -1.429,-5.496 -2.812,-6.297 -1.055,-0.582 -2.731,-0.722 -5.032,-0.422 -2.324,0.332 -4.359,1.016 -6.109,2.047 -2.062,1.188 -3.25,2.594 -3.562,4.219 0,0.531 0.175,1 0.531,1.406 0.633,0.75 1.207,1.125 1.719,1.125 0.031,-1.344 0.394,-2.449 1.093,-3.312 1.645,-1.969 4.282,-2.953 7.907,-2.953 0.613,0 1.211,0.035 1.797,0.109 1.144,0.601 1.718,3.508 1.718,8.719 z"
       style="fill:#ffffff;fill-opacity:1;fill-rule:nonzero;stroke:none"
       id="path16" /><path
       d="m 55.664,28.176 c 0,0.437 0.18,0.82 0.547,1.156 0.363,0.344 0.644,0.578 0.844,0.703 0.195,0.133 0.332,0.235 0.406,0.297 0.113,-2.125 1.551,-3.187 4.312,-3.187 2.188,0 4.735,0.675 7.641,2.031 2.063,0.937 3.441,1.898 4.141,2.89 0.238,0.301 0.359,0.551 0.359,0.75 0,0.196 -0.039,0.352 -0.109,0.469 l -14.594,3.281 c -0.418,0.094 -0.828,0.289 -1.234,0.594 -0.719,0.508 -1.079,0.977 -1.079,1.406 0,1.614 1.145,3.079 3.438,4.391 2.531,1.426 5.914,2.504 10.156,3.234 0.969,0.164 1.688,0.258 2.156,0.282 0.133,-0.043 0.348,-0.086 0.641,-0.125 0.289,-0.032 0.594,-0.086 0.906,-0.157 0.719,-0.168 1.02,-0.468 0.907,-0.906 0,-0.805 -1.524,-1.437 -4.563,-1.906 -3.937,-0.586 -6.398,-1.078 -7.375,-1.484 -0.969,-0.399 -1.672,-0.809 -2.109,-1.235 -0.43,-0.418 -0.657,-0.918 -0.688,-1.5 0,-0.117 0.27,-0.246 0.813,-0.39 0.539,-0.137 1.187,-0.305 1.937,-0.5 0.75,-0.2 1.723,-0.465 2.922,-0.797 2.906,-0.793 6.469,-1.797 10.688,-3.016 0.226,-0.523 0.343,-1.008 0.343,-1.453 0,-1.242 -0.726,-2.434 -2.172,-3.578 -1.648,-1.293 -3.921,-2.383 -6.828,-3.266 -2.418,-0.73 -4.34,-1.094 -5.765,-1.094 -1.2,0 -2.34,0.207 -3.422,0.625 -1.074,0.426 -1.883,0.836 -2.422,1.235 -0.531,0.394 -0.797,0.812 -0.797,1.25 z"
       style="fill:#ffffff;fill-opacity:1;fill-rule:nonzero;stroke:none"
       id="path18" /><path
       d="m 88.75,33.004 c -0.617,-0.492 -1.188,-1.156 -1.719,-2 -0.523,-0.844 -1.058,-1.668 -1.609,-2.469 -0.555,-0.793 -1.137,-1.48 -1.75,-2.062 -0.606,-0.586 -1.266,-0.875 -1.984,-0.875 -0.711,0 -1.204,0.097 -1.485,0.297 -0.281,0.195 -0.422,0.453 -0.422,0.765 0,0.32 0.008,0.578 0.031,0.766 l 6.688,7.906 c -1.219,1.5 -2.246,2.773 -3.078,3.828 -0.836,1.051 -1.524,1.914 -2.063,2.594 -0.543,0.687 -0.961,1.223 -1.25,1.609 -0.293,0.383 -0.507,0.664 -0.64,0.844 -0.125,0.176 -0.211,0.313 -0.25,0.406 0,0.469 0.316,0.797 0.953,0.985 0.531,0.164 1,0.14 1.406,-0.078 l 6.75,-8.157 8.391,9.922 2.047,-1.656 -8.438,-10.016 c 0.789,-1.086 1.695,-2.008 2.719,-2.765 1.019,-0.762 1.973,-1.477 2.859,-2.141 0.895,-0.668 1.641,-1.344 2.235,-2.031 0.601,-0.68 0.906,-1.469 0.906,-2.375 -0.074,-0.543 -0.32,-0.906 -0.735,-1.094 -0.093,-0.055 -0.261,-0.078 -0.5,-0.078 -0.23,0 -0.578,0.176 -1.046,0.531 z"
       style="fill:#ffffff;fill-opacity:1;fill-rule:nonzero;stroke:none"
       id="path20" /><path
       d="m 40.883,19.316 -0.86,0.016 c -0.23,0 -0.496,-0.023 -0.796,-0.062 -0.012,-0.262 -0.039,-0.59 -0.079,-0.985 -0.136,-1.437 -0.203,-2.371 -0.203,-2.797 0,-0.429 0.004,-0.73 0.016,-0.906 l -0.922,-0.062 0.313,4.828 -2.079,0.109 c -0.054,0 -0.093,0.039 -0.125,0.125 -0.031,0.094 -0.046,0.172 -0.046,0.234 0,0.071 0.023,0.149 0.078,0.235 0.062,0.094 0.132,0.14 0.218,0.14 0.469,-0.023 0.946,-0.058 1.438,-0.109 0.883,-0.074 1.641,-0.109 2.266,-0.109 l 0.609,0.015 c 0.477,0.008 0.953,0.063 1.422,0.157 0.101,-0.024 0.164,-0.184 0.187,-0.485 0.008,-0.062 0.016,-0.117 0.016,-0.156 -0.43,-0.125 -0.914,-0.188 -1.453,-0.188 z"
       style="fill:#ffffff;fill-opacity:1;fill-rule:nonzero;stroke:none"
       id="path22" /><path
       d="m 48.879,14.66 c -0.063,-0.117 -0.219,-0.172 -0.469,-0.172 -0.242,0 -0.359,0.086 -0.359,0.266 0,0.769 -0.016,1.297 -0.047,1.578 -0.063,0.633 -0.188,0.973 -0.375,1.016 -0.469,0.093 -0.856,0.14 -1.156,0.14 -0.293,0 -0.532,-0.09 -0.719,-0.265 -0.188,-0.18 -0.336,-0.477 -0.438,-0.891 -0.105,-0.418 -0.179,-1 -0.218,-1.75 h -0.75 c 0.007,0.375 0.015,0.719 0.015,1.031 0,0.321 -0.011,0.703 -0.031,1.141 -0.012,0.445 -0.023,0.93 -0.031,1.453 -0.043,0.594 -0.063,1.098 -0.063,1.516 0,0.414 0.024,0.797 0.078,1.14 0.071,0.125 0.172,0.188 0.297,0.188 0.145,0 0.258,-0.059 0.344,-0.172 0.082,-0.106 0.129,-0.199 0.141,-0.281 l -0.047,-1.61 c 0,-0.605 0.023,-1.058 0.078,-1.359 0.594,0.383 1.203,0.578 1.828,0.578 0.195,0 0.41,-0.016 0.641,-0.047 0.488,-0.25 0.804,-0.523 0.953,-0.812 0.07,-0.149 0.117,-0.309 0.14,-0.485 0.02,-0.168 0.032,-0.355 0.032,-0.562 0.039,-0.742 0.093,-1.289 0.156,-1.641 z"
       style="fill:#ffffff;fill-opacity:1;fill-rule:nonzero;stroke:none"
       id="path24" /><path
       d="m 52.918,15.207 c 0.57,0 1.437,0.258 2.594,0.781 0.07,0 0.129,-0.027 0.172,-0.078 0.05,-0.055 0.078,-0.109 0.078,-0.172 -0.262,-0.437 -0.762,-0.781 -1.5,-1.031 -0.742,-0.25 -1.43,-0.289 -2.063,-0.125 -0.719,0.188 -1.156,0.594 -1.312,1.219 -0.012,0.125 -0.016,0.289 -0.016,0.5 0,0.207 0.051,0.476 0.156,0.812 0.102,0.344 0.285,0.664 0.547,0.969 0.258,0.313 0.567,0.555 0.922,0.734 0.352,0.176 0.727,0.266 1.125,0.266 0.375,0 0.797,-0.133 1.266,-0.391 0.218,-0.125 0.39,-0.265 0.515,-0.421 0.133,-0.157 0.203,-0.321 0.203,-0.485 0,-0.043 0,-0.086 0,-0.125 -0.023,-0.398 -0.214,-0.648 -0.578,-0.75 -0.168,-0.055 -0.355,-0.078 -0.562,-0.078 l -1.406,0.063 c -0.469,0 -0.829,-0.102 -1.079,-0.297 -0.148,-0.118 -0.25,-0.282 -0.312,-0.5 0.164,-0.594 0.582,-0.891 1.25,-0.891 z m 1.75,3.016 c -0.148,0.101 -0.297,0.175 -0.453,0.218 -0.156,0.051 -0.289,0.079 -0.391,0.079 -0.105,0 -0.277,-0.04 -0.515,-0.11 -0.231,-0.062 -0.438,-0.14 -0.625,-0.234 -0.45,-0.211 -0.672,-0.422 -0.672,-0.641 0.519,-0.055 0.91,-0.078 1.172,-0.078 0.726,0 1.218,0.063 1.468,0.188 0.157,0.062 0.235,0.144 0.235,0.25 0,0.113 -0.075,0.222 -0.219,0.328 z"
       style="fill:#ffffff;fill-opacity:1;fill-rule:nonzero;stroke:none"
       id="path26" /><path
       d="m 63.977,16.379 c 0,0.769 0.328,1.391 0.984,1.859 0.531,0.364 1.164,0.586 1.906,0.672 0.039,0 0.129,0 0.266,0 0.144,0 0.344,-0.043 0.594,-0.125 0.531,-0.187 0.894,-0.512 1.093,-0.969 0.071,-0.187 0.11,-0.343 0.11,-0.468 0,-0.125 -0.008,-0.215 -0.016,-0.266 0,-0.812 -0.309,-1.453 -0.922,-1.922 -0.574,-0.437 -1.289,-0.656 -2.14,-0.656 -0.625,0 -1.094,0.141 -1.407,0.422 -0.312,0.289 -0.468,0.773 -0.468,1.453 z m 0.671,-0.234 c 0,-0.407 0.102,-0.684 0.313,-0.829 0.164,-0.105 0.441,-0.156 0.828,-0.156 0.383,0 0.723,0.031 1.016,0.094 0.289,0.062 0.55,0.16 0.781,0.297 0.488,0.312 0.734,0.797 0.734,1.453 0,0.394 -0.105,0.719 -0.312,0.969 -0.231,0.257 -0.531,0.39 -0.906,0.39 -0.25,-0.043 -0.508,-0.09 -0.766,-0.14 -0.262,-0.055 -0.5,-0.153 -0.719,-0.297 -0.5,-0.324 -0.824,-0.918 -0.969,-1.781 z"
       style="fill:#ffffff;fill-opacity:1;fill-rule:nonzero;stroke:none"
       id="path28" /><path
       d="m 71.977,18.441 c 0.882,0.301 1.648,0.454 2.296,0.454 0.821,0 1.368,-0.215 1.641,-0.641 0.125,-0.211 0.188,-0.43 0.188,-0.656 0,-0.325 -0.106,-0.664 -0.313,-1.016 -0.211,-0.344 -0.48,-0.652 -0.812,-0.922 -0.793,-0.648 -1.75,-1.047 -2.875,-1.203 0,-0.07 0,-0.187 0,-0.344 0.007,-0.164 0.015,-0.343 0.015,-0.531 0,-0.195 0,-0.406 0,-0.625 0.008,-0.227 0.02,-0.441 0.031,-0.641 0.008,-0.5 0.02,-0.785 0.032,-0.859 0.008,-0.07 0.015,-0.133 0.015,-0.187 0,-0.157 -0.054,-0.274 -0.156,-0.36 -0.105,-0.082 -0.242,-0.125 -0.406,-0.125 -0.031,0 -0.063,0 -0.094,0 l -0.156,7.86 c 0.051,0.082 0.125,0.117 0.219,0.109 0.101,0 0.179,-0.027 0.234,-0.078 0.062,-0.043 0.109,-0.121 0.141,-0.235 z m 2.843,-0.343 c -0.211,0.101 -0.437,0.156 -0.687,0.156 -0.242,0 -0.481,-0.024 -0.719,-0.063 -0.555,-0.105 -0.961,-0.336 -1.219,-0.687 -0.117,-0.18 -0.172,-0.387 -0.172,-0.625 0,-0.031 0,-0.059 0,-0.078 v -1.688 c 1.344,0.289 2.297,0.707 2.86,1.25 0.32,0.301 0.484,0.614 0.484,0.938 0,0.344 -0.183,0.609 -0.547,0.797 z"
       style="fill:#ffffff;fill-opacity:1;fill-rule:nonzero;stroke:none"
       id="path30" /><path
       d="m 80.277,15.207 c 0.571,0 1.438,0.258 2.594,0.781 0.07,0 0.129,-0.027 0.172,-0.078 0.051,-0.055 0.078,-0.109 0.078,-0.172 -0.262,-0.437 -0.762,-0.781 -1.5,-1.031 -0.742,-0.25 -1.43,-0.289 -2.062,-0.125 -0.719,0.188 -1.157,0.594 -1.313,1.219 -0.012,0.125 -0.016,0.289 -0.016,0.5 0,0.207 0.051,0.476 0.157,0.812 0.101,0.344 0.285,0.664 0.547,0.969 0.257,0.313 0.566,0.555 0.921,0.734 0.352,0.176 0.727,0.266 1.125,0.266 0.375,0 0.797,-0.133 1.266,-0.391 0.219,-0.125 0.391,-0.265 0.516,-0.421 0.133,-0.157 0.203,-0.321 0.203,-0.485 0,-0.043 0,-0.086 0,-0.125 -0.024,-0.398 -0.215,-0.648 -0.578,-0.75 -0.168,-0.055 -0.356,-0.078 -0.563,-0.078 l -1.406,0.063 c -0.469,0 -0.828,-0.102 -1.078,-0.297 -0.149,-0.118 -0.25,-0.282 -0.313,-0.5 0.164,-0.594 0.582,-0.891 1.25,-0.891 z m 1.75,3.016 c -0.148,0.101 -0.297,0.175 -0.453,0.218 -0.156,0.051 -0.289,0.079 -0.39,0.079 -0.106,0 -0.278,-0.04 -0.516,-0.11 -0.23,-0.062 -0.438,-0.14 -0.625,-0.234 -0.449,-0.211 -0.672,-0.422 -0.672,-0.641 0.52,-0.055 0.91,-0.078 1.172,-0.078 0.727,0 1.219,0.063 1.469,0.188 0.156,0.062 0.234,0.144 0.234,0.25 0,0.113 -0.074,0.222 -0.219,0.328 z"
       style="fill:#ffffff;fill-opacity:1;fill-rule:nonzero;stroke:none"
       id="path32" /><path
       d="m 89.203,16.66 c 0,0.77 -0.043,1.336 -0.125,1.703 0.051,0.102 -0.027,0.157 -0.234,0.157 -0.231,0 -0.524,-0.059 -0.875,-0.172 -0.344,-0.118 -0.625,-0.227 -0.844,-0.328 -0.531,-0.262 -0.828,-0.512 -0.891,-0.75 v -2.657 h -0.656 c -0.086,0.227 -0.125,0.852 -0.125,1.875 0,0.907 0.016,1.571 0.047,2 0.039,0.438 0.07,0.68 0.094,0.735 0.164,0.113 0.301,0.172 0.406,0.172 0.164,0 0.25,-0.196 0.25,-0.579 0,-0.148 -0.012,-0.293 -0.031,-0.437 -0.012,-0.137 -0.016,-0.231 -0.016,-0.281 1.051,0.769 1.867,1.156 2.453,1.156 0.656,0 1.032,-0.531 1.125,-1.594 0.031,-0.367 0.047,-0.875 0.047,-1.531 v -0.781 c 0,-0.282 0.004,-0.559 0.016,-0.828 -0.063,-0.04 -0.117,-0.063 -0.156,-0.063 -0.024,0.012 -0.063,0.023 -0.126,0.031 -0.062,0.012 -0.148,0.024 -0.25,0.032 -0.074,0.257 -0.117,0.523 -0.124,0.796 0,0.27 0,0.52 0,0.75 z"
       style="fill:#ffffff;fill-opacity:1;fill-rule:nonzero;stroke:none"
       id="path34" /><path
       d="m 101.707,15.551 c 0.27,0.101 0.531,0.203 0.781,0.297 0.258,0.093 0.504,0.14 0.735,0.14 0.226,0 0.343,-0.074 0.343,-0.218 0,-0.032 -0.011,-0.086 -0.031,-0.157 -0.012,-0.062 -0.101,-0.14 -0.265,-0.234 -0.157,-0.094 -0.352,-0.188 -0.579,-0.281 -0.23,-0.086 -0.48,-0.164 -0.75,-0.235 -0.273,-0.062 -0.539,-0.121 -0.796,-0.172 -0.543,-0.117 -0.93,-0.171 -1.157,-0.171 -0.23,0 -0.48,0.023 -0.75,0.078 -0.261,0.05 -0.508,0.132 -0.734,0.25 -0.524,0.281 -0.781,0.687 -0.781,1.218 0,0.039 0,0.118 0,0.235 0,0.113 0.047,0.281 0.14,0.5 0.102,0.219 0.25,0.437 0.438,0.656 0.195,0.219 0.426,0.414 0.687,0.594 0.551,0.394 1.125,0.648 1.719,0.765 0.207,0.039 0.379,0.063 0.516,0.063 0.144,0 0.257,0 0.343,0 0.094,0 0.188,-0.008 0.282,-0.016 0.101,-0.011 0.191,-0.039 0.265,-0.078 0.164,-0.086 0.25,-0.25 0.25,-0.5 0,-0.156 -0.109,-0.308 -0.328,-0.453 -0.062,-0.043 -0.117,-0.078 -0.156,-0.109 -0.031,0.144 -0.074,0.269 -0.125,0.375 -0.055,0.101 -0.168,0.156 -0.344,0.156 -0.773,-0.156 -1.433,-0.399 -1.984,-0.719 -0.625,-0.375 -0.938,-0.765 -0.938,-1.172 0,-0.054 0.004,-0.105 0.016,-0.156 0,-0.418 0.156,-0.715 0.469,-0.891 0.25,-0.125 0.562,-0.187 0.937,-0.187 0.383,0 0.711,0.039 0.985,0.125 0.281,0.094 0.55,0.191 0.812,0.297 z"
       style="fill:#ffffff;fill-opacity:1;fill-rule:nonzero;stroke:none"
       id="path36" /><path
       d="m 110.379,14.66 c -0.063,-0.117 -0.219,-0.172 -0.469,-0.172 -0.242,0 -0.359,0.086 -0.359,0.266 0,0.769 -0.016,1.297 -0.047,1.578 -0.063,0.633 -0.188,0.973 -0.375,1.016 -0.469,0.093 -0.856,0.14 -1.156,0.14 -0.293,0 -0.532,-0.09 -0.719,-0.265 -0.188,-0.18 -0.336,-0.477 -0.438,-0.891 -0.105,-0.418 -0.179,-1 -0.218,-1.75 h -0.75 c 0.007,0.375 0.015,0.719 0.015,1.031 0,0.321 -0.011,0.703 -0.031,1.141 -0.012,0.445 -0.023,0.93 -0.031,1.453 -0.043,0.594 -0.063,1.098 -0.063,1.516 0,0.414 0.024,0.797 0.078,1.14 0.071,0.125 0.172,0.188 0.297,0.188 0.145,0 0.258,-0.059 0.344,-0.172 0.082,-0.106 0.129,-0.199 0.141,-0.281 l -0.047,-1.61 c 0,-0.605 0.023,-1.058 0.078,-1.359 0.594,0.383 1.203,0.578 1.828,0.578 0.195,0 0.41,-0.016 0.641,-0.047 0.488,-0.25 0.804,-0.523 0.953,-0.812 0.07,-0.149 0.117,-0.309 0.14,-0.485 0.02,-0.168 0.032,-0.355 0.032,-0.562 0.039,-0.742 0.093,-1.289 0.156,-1.641 z"
       style="fill:#ffffff;fill-opacity:1;fill-rule:nonzero;stroke:none"
       id="path38" /><path
       d="m 116.281,16.145 c -0.492,-0.774 -1.14,-1.247 -1.953,-1.422 -0.199,-0.043 -0.375,-0.063 -0.531,-0.063 -0.149,0 -0.274,0 -0.375,0 -0.094,0 -0.203,0.008 -0.328,0.031 -0.125,0.032 -0.242,0.079 -0.344,0.141 -0.242,0.133 -0.359,0.328 -0.359,0.578 -0.032,0.113 -0.047,0.242 -0.047,0.391 0,0.144 0.031,0.336 0.094,0.578 0.07,0.25 0.191,0.508 0.359,0.781 0.176,0.281 0.391,0.539 0.641,0.781 0.507,0.489 1.066,0.805 1.671,0.954 0.164,0.039 0.321,0.062 0.469,0.062 0.156,0 0.289,-0.012 0.406,-0.031 0.375,0 0.629,-0.258 0.766,-0.766 0.082,-0.336 0.129,-0.793 0.141,-1.375 0.019,-0.586 0.035,-1.031 0.047,-1.344 0.019,-0.312 0.062,-0.601 0.124,-0.859 h -0.578 c -0.023,0.176 -0.043,0.332 -0.062,0.469 -0.012,0.133 -0.024,0.258 -0.031,0.375 -0.032,0.269 -0.071,0.508 -0.11,0.719 z m -0.047,1.515 c 0,0.375 -0.187,0.563 -0.562,0.563 -0.043,0.007 -0.086,0.015 -0.125,0.015 -0.481,0 -0.985,-0.23 -1.516,-0.687 -0.242,-0.211 -0.449,-0.446 -0.625,-0.703 -0.261,-0.375 -0.39,-0.711 -0.39,-1 0,-0.387 0.218,-0.618 0.656,-0.688 0.594,0.02 1.156,0.289 1.687,0.813 0.227,0.218 0.414,0.461 0.563,0.734 0.207,0.352 0.312,0.672 0.312,0.953 z"
       style="fill:#ffffff;fill-opacity:1;fill-rule:nonzero;stroke:none"
       id="path40" /><path
       d="m 120.691,15.457 0.032,1.563 c 0,0.25 -0.028,0.46 -0.078,0.64 h -1.516 l -0.016,0.672 h 1.469 v 2.516 c 0.02,0.062 0.055,0.117 0.109,0.172 0.094,0.093 0.172,0.14 0.235,0.14 0.062,0 0.113,-0.008 0.156,-0.015 0.051,-0.012 0.102,-0.059 0.156,-0.141 0.102,-0.43 0.157,-1.074 0.157,-1.938 0,-0.218 0.007,-0.433 0.031,-0.64 0.207,0.031 0.414,0.047 0.625,0.047 0,0 0.164,0 0.5,0 0.125,0 0.238,0.004 0.344,0.015 l -0.032,-0.703 -1.422,0.031 0.047,-3.359 c -0.117,-0.051 -0.215,-0.078 -0.297,-0.078 -0.336,0 -0.5,0.359 -0.5,1.078 z"
       style="fill:#ffffff;fill-opacity:1;fill-rule:nonzero;stroke:none"
       id="path42" /><path
       d="m 118.473,45.648 c 0,0 -1.84,1.223 -3.719,1.223 -1.781,0 -3.492,-0.676 -5.133,-2.031 -2.066,-1.711 -3.492,-3.922 -4.273,-6.629 -0.286,-0.973 -0.43,-1.781 -0.43,-2.422 0,-0.641 0.023,-1.141 0.07,-1.496 0,-2.355 0.797,-4.16 2.391,-5.418 1.496,-1.164 3.406,-1.746 5.734,-1.746 3.184,0.262 3.766,-0.164 6.688,2.019 0.808,0.622 1.66,1.215 2.566,1.786 0.332,0 0.664,-0.051 0.996,-0.145 0.356,-0.094 0.535,-0.367 0.535,-0.82 -2.351,-2.043 -2.687,-2.809 -4.3,-3.711 -2.996,-1.617 -4.879,-1.481 -7.301,-1.481 h -0.465 c -2.637,0 -4.894,0.821 -6.77,2.457 -1.996,1.735 -2.996,3.899 -2.996,6.489 0,1.945 0.348,3.812 1.036,5.593 0.71,1.782 1.675,3.348 2.886,4.704 1.235,1.378 2.684,2.472 4.348,3.277 1.687,0.808 3.492,1.215 5.414,1.215 1.641,0 2.711,-0.227 3.211,-0.68 0.617,-0.547 2.219,-2.449 -0.488,-2.184 z"
       style="fill:#ffffff;fill-opacity:1;fill-rule:nonzero;stroke:none"
       id="path44" /><path
       d="m 101.008,82.074 c 0.98,-2.769 1.597,-4.508 3.418,-7.801 0.281,-0.261 0.453,-0.8 -3.571,1.075 -2.183,1.015 -5.25,2.656 -8.445,4.172 -8.629,-1.985 -15.633,-1.79 -22.398,-1.391 -9.446,0.559 -10.813,2.863 -15.824,6.762 -3.665,2.879 -8.098,7.746 -7.493,15.445 0,2.148 0.477,4.852 1.434,8.113 -0.727,4.918 -1.824,6.332 -2.875,6.274 -1.535,-0.086 -2.965,-3.309 -2.965,-3.309 -0.426,-6.906 -1.144,-11.219 -0.48,-17.707 0.886,-8.668 5.629,-11.59 7.683,-13.543 2.051,-1.957 9.176,-6.191 16.75,-7.082 6.789,-0.797 18.602,-0.078 26.094,1.465 5.371,-1.336 12.469,-5.41 16.539,-7.305 4.02,-1.871 3.852,-1.336 3.57,-1.078 -2.73,4.938 -2.648,6.086 -5.371,13.082 0.656,0.5 1.313,1.086 2,1.816 4.098,4.344 5.996,7.762 4.805,8.079 -1.113,0.32 -2.227,0.476 -3.34,0.476 -2.75,-2.801 -4.391,-6.012 -9.531,-7.543 z"
       style="fill:#ffffff;fill-opacity:1;fill-rule:nonzero;stroke:none"
       id="path46" /><path
       d="m 114.73,100.691 c -0.054,0 -0.105,0 -0.16,-0.003 -4.953,-0.126 -12.16,-1.196 -16.925,-2.508 -4.762,-1.313 -7.083,-2.868 -11.758,-3.961 -4.676,-1.09 -13.508,-1.094 -18.172,-0.735 -4.664,0.356 -4.481,1.75 -9.426,4.809 -2.637,1.703 -5.805,-3.004 -3.101,-4.598 5.546,-3.433 11.019,-5 16.335,-5.422 5.317,-0.421 10.477,0.305 15.411,1.457 4.933,1.153 11.566,3.364 16.183,4.633 4.617,1.274 7.227,1.606 11.571,1.715 3.074,-0.027 3.117,4.582 0.042,4.613 z"
       style="fill:#ffffff;fill-opacity:1;fill-rule:evenodd;stroke:none"
       id="path48" /><path
       d="m 116.43,114.078 c -2.434,-0.058 -5.496,-0.324 -7.852,-0.789 -2.351,-0.465 -3.996,-1.125 -6.297,-1.809 -2.304,-0.683 -4.25,-1.093 -6.531,-1.808 -2.281,-0.719 -4.898,-1.746 -7.188,-2.313 -4.578,-1.129 -9.187,-2.183 -13.929,-1.449 -4.617,0.711 -9.488,2.43 -15.192,5.113 -2.664,1.68 -3.601,-1.949 -2.371,-3.957 4.227,-3.578 5.848,-3.699 11.707,-4.152 5.864,-0.449 15.969,-1.23 20.891,-0.031 4.867,1.187 8.121,3.121 12.574,4.445 4.449,1.324 10.09,2.039 14.301,2.141 1.559,0.019 1.504,0.14 1.473,1.304 -0.028,1.161 -0.028,3.364 -1.586,3.305 z"
       style="fill:#ffffff;fill-opacity:1;fill-rule:evenodd;stroke:none"
       id="path50" /><path
       d="m 103.984,124.137 c -0.054,-0.004 -0.109,-0.008 -0.16,-0.012 -4.535,-0.477 -8.066,-1.414 -11.109,-2.387 -3.043,-0.972 -5.598,-1.972 -8.184,-2.566 -2.586,-0.594 -9.629,-0.414 -13.179,0.035 -3.551,0.453 -3.61,1.176 -9.508,3.535 -1.442,0.606 -2.899,-1.672 -3.332,-2.754 -0.43,-1.082 0.156,-0.972 1.621,-1.527 6.148,-2.457 11.004,-3.746 15.078,-4.25 4.07,-0.504 7.355,-0.223 10.351,0.469 3,0.687 5.399,2.363 8.297,3.297 2.899,0.937 6.293,1.128 10.446,1.562 3.168,0.258 6.027,5.566 -0.321,4.598 z"
       style="fill:#ffffff;fill-opacity:1;fill-rule:evenodd;stroke:none"
       id="path52" /></g></svg>