<?xml version="1.0" encoding="UTF-8" standalone="no"?>
<!-- Created with Inkscape (http://www.inkscape.org/) -->

<svg
   xmlns:dc="http://purl.org/dc/elements/1.1/"
   xmlns:cc="http://creativecommons.org/ns#"
   xmlns:rdf="http://www.w3.org/1999/02/22-rdf-syntax-ns#"
   xmlns:svg="http://www.w3.org/2000/svg"
   xmlns="http://www.w3.org/2000/svg"
   xmlns:sodipodi="http://sodipodi.sourceforge.net/DTD/sodipodi-0.dtd"
   xmlns:inkscape="http://www.inkscape.org/namespaces/inkscape"
   version="1.1"
   id="svg2"
   xml:space="preserve"
   width="101.98251"
   height="77.818611"
   viewBox="0 0 101.98251 77.818612"
   sodipodi:docname="jsxc-icon-white.svg"
   inkscape:version="0.92.1 r15371"><metadata
     id="metadata8"><rdf:RDF><cc:Work
         rdf:about=""><dc:format>image/svg+xml</dc:format><dc:type
           rdf:resource="http://purl.org/dc/dcmitype/StillImage" /><dc:title></dc:title></cc:Work></rdf:RDF></metadata><defs
     id="defs6" /><sodipodi:namedview
     pagecolor="#ffffff"
     bordercolor="#666666"
     borderopacity="1"
     objecttolerance="10"
     gridtolerance="10"
     guidetolerance="10"
     inkscape:pageopacity="0"
     inkscape:pageshadow="2"
     inkscape:window-width="968"
     inkscape:window-height="820"
     id="namedview4"
     showgrid="false"
     fit-margin-top="0"
     fit-margin-left="0"
     fit-margin-right="0"
     fit-margin-bottom="0"
     inkscape:zoom="1.10625"
     inkscape:cx="51.281115"
     inkscape:cy="18.812208"
     inkscape:window-x="41"
     inkscape:window-y="24"
     inkscape:window-maximized="0"
     inkscape:current-layer="g10" /><g
     id="g10"
     inkscape:groupmode="layer"
     inkscape:label="jsxc-logo-rgb"
     transform="matrix(1.3333333,0,0,-1.3333333,-55.385549,165.67307)"><path
       inkscape:connector-curvature="0"
       id="path46"
       style="fill:#ffffff;fill-opacity:1;fill-rule:nonzero;stroke:none"
       d="m 101.008,82.074 c 0.98,-2.769 1.597,-4.508 3.418,-7.801 0.281,-0.261 0.453,-0.8 -3.571,1.075 -2.183,1.015 -5.25,2.656 -8.445,4.172 -8.629,-1.985 -15.633,-1.79 -22.398,-1.391 -9.446,0.559 -10.813,2.863 -15.824,6.762 -3.665,2.879 -8.098,7.746 -7.493,15.445 0,2.148 0.477,4.852 1.434,8.113 -0.727,4.918 -1.824,6.332 -2.875,6.274 -1.535,-0.086 -2.965,-3.309 -2.965,-3.309 -0.426,-6.906 -1.144,-11.219 -0.48,-17.707 0.886,-8.668 5.629,-11.59 7.683,-13.543 2.051,-1.957 9.176,-6.191 16.75,-7.082 6.789,-0.797 18.602,-0.078 26.094,1.465 5.371,-1.336 12.469,-5.41 16.539,-7.305 4.02,-1.871 3.852,-1.336 3.57,-1.078 -2.73,4.938 -2.648,6.086 -5.371,13.082 0.656,0.5 1.313,1.086 2,1.816 4.098,4.344 5.996,7.762 4.805,8.079 -1.113,0.32 -2.227,0.476 -3.34,0.476 -2.75,-2.801 -4.391,-6.012 -9.531,-7.543 z" /><path
       inkscape:connector-curvature="0"
       id="path48"
       style="fill:#ffffff;fill-opacity:1;fill-rule:evenodd;stroke:none"
       d="m 114.73,100.691 c -0.054,0 -0.105,0 -0.16,-0.003 -4.953,-0.126 -12.16,-1.196 -16.925,-2.508 -4.762,-1.313 -7.083,-2.868 -11.758,-3.961 -4.676,-1.09 -13.508,-1.094 -18.172,-0.735 -4.664,0.356 -4.481,1.75 -9.426,4.809 -2.637,1.703 -5.805,-3.004 -3.101,-4.598 5.546,-3.433 11.019,-5 16.335,-5.422 5.317,-0.421 10.477,0.305 15.411,1.457 4.933,1.153 11.566,3.364 16.183,4.633 4.617,1.274 7.227,1.606 11.571,1.715 3.074,-0.027 3.117,4.582 0.042,4.613 z" /><path
       inkscape:connector-curvature="0"
       id="path50"
       style="fill:#ffffff;fill-opacity:1;fill-rule:evenodd;stroke:none"
       d="m 116.43,114.078 c -2.434,-0.058 -5.496,-0.324 -7.852,-0.789 -2.351,-0.465 -3.996,-1.125 -6.297,-1.809 -2.304,-0.683 -4.25,-1.093 -6.531,-1.808 -2.281,-0.719 -4.898,-1.746 -7.188,-2.313 -4.578,-1.129 -9.187,-2.183 -13.929,-1.449 -4.617,0.711 -9.488,2.43 -15.192,5.113 -2.664,1.68 -3.601,-1.949 -2.371,-3.957 4.227,-3.578 5.848,-3.699 11.707,-4.152 5.864,-0.449 15.969,-1.23 20.891,-0.031 4.867,1.187 8.121,3.121 12.574,4.445 4.449,1.324 10.09,2.039 14.301,2.141 1.559,0.019 1.504,0.14 1.473,1.304 -0.028,1.161 -0.028,3.364 -1.586,3.305 z" /><path
       inkscape:connector-curvature="0"
       id="path52"
       style="fill:#ffffff;fill-opacity:1;fill-rule:evenodd;stroke:none"
       d="m 103.984,124.137 c -0.054,-0.004 -0.109,-0.008 -0.16,-0.012 -4.535,-0.477 -8.066,-1.414 -11.109,-2.387 -3.043,-0.972 -5.598,-1.972 -8.184,-2.566 -2.586,-0.594 -9.629,-0.414 -13.179,0.035 -3.551,0.453 -3.61,1.176 -9.508,3.535 -1.442,0.606 -2.899,-1.672 -3.332,-2.754 -0.43,-1.082 0.156,-0.972 1.621,-1.527 6.148,-2.457 11.004,-3.746 15.078,-4.25 4.07,-0.504 7.355,-0.223 10.351,0.469 3,0.687 5.399,2.363 8.297,3.297 2.899,0.937 6.293,1.128 10.446,1.562 3.168,0.258 6.027,5.566 -0.321,4.598 z" /></g></svg>